# xmcd CD database file
#
# Track frame offsets:
#	180
#	27073
#	78359
#	102699
#	142851
#	175397
#	200909
#	241163
#
# Disc length: 3922 seconds
#
# Revision: 0
# Processed by: cddbd v1.4PL0 Copyright (c) Steve Scherf et al.
# Submitted via: CDex 1.50Beta5
#
DISCID=670f5008
DTITLE=Harvey Wainapel - At Home On The Road
DYEAR=1994
DGENRE=Jazz
TTITLE0=What Is This Thing Called Love
TTITLE1=Katrina Ballerina
TTITLE2=Cyclic Episode
TTITLE3=You Know I Care
TTITLE4=You Can't Eat Your Cake
TTITLE5=Lost
TTITLE6=Intimation of Blue
TTITLE7=No. 3
EXTD=YEAR: 1994
EXTT0=
EXTT1=
EXTT2=
EXTT3=
EXTT4=
EXTT5=
EXTT6=
EXTT7=
PLAYORDER=
